<svg width="28" height="28" viewBox="0 0 28 28" fill="none" xmlns="http://www.w3.org/2000/svg">
<path d="M19.3408 15.4419L18.3102 14.8468C18.4142 14.2855 18.4142 13.7097 18.3102 13.1484L19.3408 12.5532C19.4594 12.4855 19.5126 12.3452 19.4739 12.2145C19.2053 11.3532 18.7481 10.5742 18.1505 9.92582C18.0586 9.82663 17.9086 9.80244 17.7924 9.87018L16.7618 10.4653C16.3287 10.0928 15.8304 9.80485 15.2908 9.61615V8.42825C15.2908 8.29276 15.1965 8.17422 15.0634 8.14518C14.1755 7.9468 13.2659 7.95647 12.4215 8.14518C12.2884 8.17422 12.1941 8.29276 12.1941 8.42825V9.61856C11.657 9.80969 11.1586 10.0976 10.7231 10.4678L9.6949 9.8726C9.57635 9.80485 9.42877 9.82663 9.33684 9.92824C8.73926 10.5742 8.282 11.3532 8.01345 12.2169C7.97233 12.3476 8.02797 12.4879 8.14652 12.5557L9.17716 13.1508C9.07313 13.7121 9.07313 14.2879 9.17716 14.8492L8.14652 15.4443C8.02797 15.5121 7.97474 15.6524 8.01345 15.7831C8.282 16.6443 8.73926 17.4234 9.33684 18.0718C9.42877 18.171 9.57877 18.1951 9.6949 18.1274L10.7255 17.5322C11.1586 17.9048 11.657 18.1927 12.1965 18.3814V19.5718C12.1965 19.7072 12.2909 19.8258 12.4239 19.8548C13.3118 20.0532 14.2215 20.0435 15.0658 19.8548C15.1989 19.8258 15.2933 19.7072 15.2933 19.5718V18.3814C15.8304 18.1903 16.3287 17.9024 16.7642 17.5322L17.7949 18.1274C17.9134 18.1951 18.061 18.1734 18.1529 18.0718C18.7505 17.4258 19.2078 16.6468 19.4763 15.7831C19.5126 15.65 19.4594 15.5097 19.3408 15.4419ZM13.7425 15.9331C12.6755 15.9331 11.807 15.0645 11.807 13.9976C11.807 12.9306 12.6755 12.0621 13.7425 12.0621C14.8094 12.0621 15.6779 12.9306 15.6779 13.9976C15.6779 15.0645 14.8094 15.9331 13.7425 15.9331Z" fill="#111111"/>
</svg>
